<!DOCTYPE svg PUBLIC "-//W3C//DTD SVG 1.1//EN" "http://www.w3.org/Graphics/SVG/1.1/DTD/svg11.dtd">
<svg xmlns="http://www.w3.org/2000/svg" xmlns:xlink="http://www.w3.org/1999/xlink" version="1.1" preserveAspectRatio="xMidYMid meet" viewBox="0 0 400 337">
  <defs>
      <path id="svg-logo-circle" d="M383.56 166.91C383.56 251.72 314.8 320.47 229.99 320.47C145.18 320.47 76.43 251.72 76.43 166.91C76.43 82.09 145.18 13.34 229.99 13.34C314.8 13.34 383.56 82.09 383.56 166.91Z" />
      <path id="svg-logo-body" d="M26.95 329.08C28.71 326.4 29.68 324.91 29.88 324.61C39.81 309.6 59.37 286.8 77.54 269.17C103.18 244.15 128.59 226.13 155.08 214.27C159.08 212.42 162.47 210.88 162.62 210.73C162.7 210.65 162.31 208.34 161.7 205.65C161.08 202.95 160.31 198.03 160 194.79C159.54 189.63 159.31 188.86 157.85 188.48C146.76 185.78 95.1 183.94 78.23 185.71C63.68 187.25 50.75 191.02 41.35 196.56C35.27 200.18 27.18 208.34 24.57 213.66C23.41 216.12 22.18 218.05 21.79 218.05C20.18 218.05 15.71 215.74 15.71 214.89C15.71 212.42 21.26 204.65 27.18 198.8C37.42 188.71 50.51 182.47 69.22 179.08C82.47 176.62 140.06 177.47 155.38 180.39C157.46 180.78 159.31 181.01 159.39 180.86C159.54 180.7 159.85 178.7 160.16 176.39C160.19 176.11 160.34 174.7 160.62 172.15C156.83 167.44 154.73 164.82 154.31 164.3C144.68 152.37 136.91 143.67 111.5 116.33C86.09 89.07 85.93 88.92 76.15 87.23C73.61 86.76 67.22 86.22 61.91 85.92C61.27 85.88 58.06 85.7 52.29 85.38C50.76 83.76 49.91 82.86 49.74 82.68C48.36 81.22 44.97 75.6 42.2 70.13C38.58 62.82 36.73 59.97 35.19 59.12C31.73 57.43 21.33 55.58 12.02 55.04C2.55 54.5 1.62 54.04 2.01 50.04C2.02 49.87 2.1 49.02 2.24 47.49C7.55 47.59 10.5 47.64 11.09 47.65C21.1 47.8 33.96 50.04 38.66 52.42C42.51 54.42 43.58 55.96 49.44 67.67C52.05 72.83 54.52 77.22 54.9 77.45C55.29 77.68 60.45 78.22 66.3 78.68C84.09 79.91 89.94 82.3 98.87 92.08C101.64 95.08 110.96 105.17 119.66 114.48C138.45 134.58 153.23 151.13 158.46 157.83C160.54 160.45 162.39 162.45 162.62 162.3C162.78 162.07 163.85 159.37 164.86 156.29C168.63 144.97 176.33 132.27 184.64 123.41C189.03 118.79 199.04 111.4 205.28 108.25C214.13 103.78 221.14 102.16 231.69 102.24C244.7 102.24 254.63 105.55 263.95 112.87C266.49 114.79 268.8 116.41 269.11 116.41C269.8 116.41 278.81 105.01 284.89 96.39C303.45 70.06 317.39 40.57 326.09 9.38C327.01 6.22 328.09 3.14 328.47 2.68C329.55 1.37 332.25 1.45 334.09 2.68C335.4 3.68 335.4 3.99 333.71 10.23C323.93 46.72 304.68 84.38 280.81 113.87C277.27 118.26 274.42 121.95 274.42 122.26C274.42 122.49 275.42 124.03 276.73 125.57C280.35 130.19 285.2 139.89 287.51 146.9C287.65 147.33 288.34 149.49 289.59 153.37C291.67 150.73 292.82 149.27 293.06 148.98C306.22 132.19 320.93 115.41 331.01 105.63C336.1 100.78 351.88 85.15 366.2 70.98C367.94 69.26 376.61 60.66 392.23 45.18L394.77 47.73L397.23 50.27C374.83 72.53 362.38 84.91 359.89 87.38C323.47 123.49 314.31 133.42 297.75 154.75C297.34 155.28 295.29 157.93 291.59 162.68C291.32 169.94 291.16 173.97 291.13 174.77C290.98 181.39 290.51 187.4 290.21 188.09C289.82 189.09 290.75 189.94 293.83 191.71C346.18 221.05 379.6 240.45 387.76 246.3C392.61 249.85 393.92 252.54 394.38 259.7C394.77 265.86 393.31 283.49 392.38 284.34C392.07 284.65 390.46 284.65 388.76 284.34C385.91 283.88 385.68 283.65 385.84 281.57C385.84 280.26 386.14 275.1 386.45 269.94C386.84 264.86 386.84 259.16 386.53 257.24C385.99 253.77 385.99 253.77 376.6 247.92C364.2 240.14 340.18 226.21 312.15 210.58C299.68 203.57 289.21 197.72 288.82 197.49C288.51 197.33 288.05 197.79 287.82 198.56C286.13 203.8 281.66 214.5 279.66 218.05C277.04 222.82 270.03 232.29 267.57 234.52C265.57 236.29 265.49 238.6 267.18 252.69C269.42 272.33 274.11 290.27 280.5 303.98C280.71 304.41 281.74 306.59 283.58 310.52C282.11 311.4 281.28 311.89 281.12 311.98C279.73 312.83 278.19 313.52 277.66 313.52C276.65 313.52 272.65 305.44 269.49 297.05C264.87 284.88 261.02 267.63 259.64 253.08C259.18 248 258.64 243.76 258.56 243.61C258.48 243.45 255.79 245.07 252.55 247.23C242.16 254 231.46 257.31 219.68 257.31C197.5 257.31 177.1 243.53 167.32 221.82C165.24 217.35 166.09 217.2 153.07 223.44C122.35 237.99 90.24 263.55 61.6 296.2C52.13 306.98 40.27 321.99 35.35 329.54C34.19 331.31 32.81 332.77 32.34 332.77C31.88 332.77 30.5 331.93 29.19 330.92C28.89 330.68 28.14 330.06 26.95 329.08Z" />
      <path id="svg-logo-head" d="M221.14 47.57C222.99 43.8 229.92 37.02 234 34.94C239.62 32.1 249.17 31.63 255.56 34.1C261.95 36.48 268.88 43.41 271.27 49.8C273.34 55.35 273.58 63.51 271.73 68.59C267.03 81.99 251.48 90.07 238.46 85.99C221.99 80.91 213.59 62.28 221.14 47.57Z" />
  </defs>
  <g>
      <use xlink:href="#svg-logo-circle" opacity="1" fill="#292b2e" fill-opacity="1" />
      <g><use xlink:href="#svg-logo-circle" opacity="1" fill-opacity="0" /></g>
  </g>
  <g>
      <use xlink:href="#svg-logo-body" opacity="1" fill="#cc3263" fill-opacity="1" />
      <g><use xlink:href="#svg-logo-body" opacity="1" fill-opacity="0" stroke="#000000" stroke-width="0" strokeOpacity="0" /></g>
  </g>
  <g>
      <use xlink:href="#svg-logo-head" opacity="1" fill="#cc3263" fill-opacity="1" />
      <g><use xlink:href="#svg-logo-head" opacity="1" fill-opacity="0" stroke="#000000" stroke-width="0" strokeOpacity="0" /></g>
  </g>
</svg>
